{
    "asset" : {
        "generator" : "Khronos glTF Blender I/O v1.2.75",
        "version" : "2.0"
    },
    "extensionsUsed" : [
        "KHR_lights_punctual"
    ],
    "extensionsRequired" : [
        "KHR_lights_punctual"
    ],
    "extensions" : {
        "KHR_lights_punctual" : {
            "lights" : [
                {
                    "color" : [
                        1,
                        0.9996947050094604,
                        0.7534114122390747
                    ],
                    "intensity" : 4,
                    "type" : "directional",
                    "name" : "Light.003"
                },
                {
                    "color" : [
                        1,
                        0.9712693095207214,
                        0.7142898440361023
                    ],
                    "intensity" : 80,
                    "type" : "point",
                    "name" : "Point"
                }
            ]
        }
    },
    "scene" : 0,
    "scenes" : [
        {
            "extras" : {
                "automirror" : {
                    "orientation" : 2
                },
                "glTF2ExportSettings" : {
                    "export_apply" : 1,
                    "export_cameras" : 1,
                    "export_extras" : 1,
                    "export_format" : "GLTF_SEPARATE",
                    "export_lights" : 1,
                    "export_tangents" : 0
                }
            },
            "name" : "Scene",
            "nodes" : [
                0,
                2,
                4,
                6,
                9
            ]
        }
    ],
    "nodes" : [
        {
            "mesh" : 0,
            "name" : "Moon",
            "translation" : [
                -14.543010711669922,
                -27.33977699279785,
                -89.70619201660156
            ]
        },
        {
            "camera" : 0,
            "name" : "Camera_Orientation",
            "rotation" : [
                -0.7071067690849304,
                0,
                0,
                0.7071067690849304
            ]
        },
        {
            "children" : [
                1
            ],
            "name" : "Camera",
            "rotation" : [
                0.5877711176872253,
                -0.005647991318255663,
                0.004103364422917366,
                0.8089971542358398
            ],
            "translation" : [
                -0.1975480169057846,
                6.406417369842529,
                18.778276443481445
            ]
        },
        {
            "extensions" : {
                "KHR_lights_punctual" : {
                    "light" : 0
                }
            },
            "name" : "Light.Sun_Orientation",
            "rotation" : [
                -0.7071067690849304,
                0,
                0,
                0.7071067690849304
            ]
        },
        {
            "children" : [
                3
            ],
            "name" : "Light.Sun",
            "rotation" : [
                0.29727691411972046,
                0.30155831575393677,
                -0.45584210753440857,
                0.7828773856163025
            ],
            "translation" : [
                76.83975219726562,
                7.882251739501953,
                -59.88787078857422
            ]
        },
        {
            "extensions" : {
                "KHR_lights_punctual" : {
                    "light" : 1
                }
            },
            "name" : "Point_Orientation",
            "rotation" : [
                -0.7071067690849304,
                0,
                0,
                0.7071067690849304
            ]
        },
        {
            "children" : [
                5
            ],
            "name" : "Point",
            "translation" : [
                -12.996612548828125,
                6.367466926574707,
                8.722558975219727
            ]
        },
        {
            "mesh" : 1,
            "name" : "Eyeball"
        },
        {
            "mesh" : 2,
            "name" : "Eyelid"
        },
        {
            "children" : [
                7,
                8
            ],
            "mesh" : 3,
            "name" : "Alien"
        }
    ],
    "cameras" : [
        {
            "name" : "Camera",
            "perspective" : {
                "yfov" : 0.39959652046304894,
                "zfar" : 1000,
                "znear" : 0.10000000149011612
            },
            "type" : "perspective"
        }
    ],
    "materials" : [
        {
            "doubleSided" : true,
            "emissiveFactor" : [
                0,
                0,
                0
            ],
            "name" : "Moon",
            "pbrMetallicRoughness" : {
                "baseColorTexture" : {
                    "index" : 0,
                    "texCoord" : 0
                },
                "metallicFactor" : 0,
                "roughnessFactor" : 0.5
            }
        },
        {
            "doubleSided" : true,
            "emissiveFactor" : [
                0,
                0,
                0
            ],
            "name" : "eye",
            "pbrMetallicRoughness" : {
                "baseColorTexture" : {
                    "index" : 1,
                    "texCoord" : 0
                },
                "metallicFactor" : 0,
                "roughnessFactor" : 0.20000000298023224
            }
        },
        {
            "doubleSided" : true,
            "emissiveFactor" : [
                0,
                0,
                0
            ],
            "name" : "eye.lids",
            "pbrMetallicRoughness" : {
                "baseColorFactor" : [
                    0,
                    0,
                    0,
                    1
                ],
                "metallicFactor" : 0,
                "roughnessFactor" : 0.5
            }
        },
        {
            "doubleSided" : true,
            "emissiveFactor" : [
                0,
                0,
                0
            ],
            "name" : "Skin",
            "normalTexture" : {
                "index" : 2,
                "texCoord" : 0
            },
            "pbrMetallicRoughness" : {
                "baseColorTexture" : {
                    "index" : 3,
                    "texCoord" : 0
                },
                "metallicFactor" : 0,
                "metallicRoughnessTexture" : {
                    "index" : 4,
                    "texCoord" : 0
                }
            }
        }
    ],
    "meshes" : [
        {
            "name" : "Sphere",
            "primitives" : [
                {
                    "attributes" : {
                        "POSITION" : 0,
                        "NORMAL" : 1,
                        "TEXCOORD_0" : 2
                    },
                    "indices" : 3,
                    "material" : 0
                }
            ]
        },
        {
            "name" : "Sphere.001",
            "primitives" : [
                {
                    "attributes" : {
                        "POSITION" : 4,
                        "NORMAL" : 5,
                        "TEXCOORD_0" : 6
                    },
                    "indices" : 7,
                    "material" : 1
                }
            ]
        },
        {
            "name" : "Torus.001",
            "primitives" : [
                {
                    "attributes" : {
                        "POSITION" : 8,
                        "NORMAL" : 9,
                        "TEXCOORD_0" : 10
                    },
                    "indices" : 11,
                    "material" : 2
                }
            ]
        },
        {
            "name" : "Sphere.003",
            "primitives" : [
                {
                    "attributes" : {
                        "POSITION" : 12,
                        "NORMAL" : 13,
                        "TEXCOORD_0" : 14
                    },
                    "indices" : 15,
                    "material" : 3
                }
            ]
        }
    ],
    "textures" : [
        {
            "source" : 0
        },
        {
            "source" : 1
        },
        {
            "source" : 2
        },
        {
            "source" : 3
        },
        {
            "source" : 4
        }
    ],
    "images" : [
        {
            "mimeType" : "image/jpeg",
            "name" : "lroc_color_poles_4k",
            "uri" : "lroc_color_poles_4k.jpg"
        },
        {
            "mimeType" : "image/jpeg",
            "name" : "eye",
            "uri" : "eye.jpg"
        },
        {
            "mimeType" : "image/jpeg",
            "name" : "TexturesCom_Leather_Plain_1K_normal",
            "uri" : "TexturesCom_Leather_Plain_1K_normal.jpg"
        },
        {
            "mimeType" : "image/jpeg",
            "name" : "TexturesCom_Leather_Plain_1K_albedo_blue",
            "uri" : "TexturesCom_Leather_Plain_1K_albedo_blue.jpg"
        },
        {
            "mimeType" : "image/png",
            "name" : "TexturesCom_Leather_Plain_1K_roughness",
            "uri" : "TexturesCom_Leather_Plain_1K_roughness.png"
        }
    ],
    "accessors" : [
        {
            "bufferView" : 0,
            "componentType" : 5126,
            "count" : 9073,
            "max" : [
                24.00430679321289,
                24.01433753967285,
                23.956809997558594
            ],
            "min" : [
                -24.004318237304688,
                -24.014341354370117,
                -23.956804275512695
            ],
            "type" : "VEC3"
        },
        {
            "bufferView" : 1,
            "componentType" : 5126,
            "count" : 9073,
            "type" : "VEC3"
        },
        {
            "bufferView" : 2,
            "componentType" : 5126,
            "count" : 9073,
            "type" : "VEC2"
        },
        {
            "bufferView" : 3,
            "componentType" : 5123,
            "count" : 47616,
            "type" : "SCALAR"
        },
        {
            "bufferView" : 4,
            "componentType" : 5126,
            "count" : 1192,
            "max" : [
                1.171447515487671,
                2.8019628524780273,
                0.6281051635742188
            ],
            "min" : [
                -1.171447515487671,
                1.7924867868423462,
                -0.3876078426837921
            ],
            "type" : "VEC3"
        },
        {
            "bufferView" : 5,
            "componentType" : 5126,
            "count" : 1192,
            "type" : "VEC3"
        },
        {
            "bufferView" : 6,
            "componentType" : 5126,
            "count" : 1192,
            "type" : "VEC2"
        },
        {
            "bufferView" : 7,
            "componentType" : 5123,
            "count" : 6732,
            "type" : "SCALAR"
        },
        {
            "bufferView" : 8,
            "componentType" : 5126,
            "count" : 1752,
            "max" : [
                0.9694007635116577,
                2.7387948036193848,
                0.6239706873893738
            ],
            "min" : [
                -0.9694007635116577,
                1.8622794151306152,
                0.28306782245635986
            ],
            "type" : "VEC3"
        },
        {
            "bufferView" : 9,
            "componentType" : 5126,
            "count" : 1752,
            "type" : "VEC3"
        },
        {
            "bufferView" : 10,
            "componentType" : 5126,
            "count" : 1752,
            "type" : "VEC2"
        },
        {
            "bufferView" : 11,
            "componentType" : 5123,
            "count" : 6912,
            "type" : "SCALAR"
        },
        {
            "bufferView" : 12,
            "componentType" : 5126,
            "count" : 11033,
            "max" : [
                1.4020920991897583,
                2.90324330329895,
                1.403191328048706
            ],
            "min" : [
                -1.4020920991897583,
                -1.9517816305160522,
                -1.403040885925293
            ],
            "type" : "VEC3"
        },
        {
            "bufferView" : 13,
            "componentType" : 5126,
            "count" : 11033,
            "type" : "VEC3"
        },
        {
            "bufferView" : 14,
            "componentType" : 5126,
            "count" : 11033,
            "type" : "VEC2"
        },
        {
            "bufferView" : 15,
            "componentType" : 5123,
            "count" : 55044,
            "type" : "SCALAR"
        }
    ],
    "bufferViews" : [
        {
            "buffer" : 0,
            "byteLength" : 108876,
            "byteOffset" : 0
        },
        {
            "buffer" : 0,
            "byteLength" : 108876,
            "byteOffset" : 108876
        },
        {
            "buffer" : 0,
            "byteLength" : 72584,
            "byteOffset" : 217752
        },
        {
            "buffer" : 0,
            "byteLength" : 95232,
            "byteOffset" : 290336
        },
        {
            "buffer" : 0,
            "byteLength" : 14304,
            "byteOffset" : 385568
        },
        {
            "buffer" : 0,
            "byteLength" : 14304,
            "byteOffset" : 399872
        },
        {
            "buffer" : 0,
            "byteLength" : 9536,
            "byteOffset" : 414176
        },
        {
            "buffer" : 0,
            "byteLength" : 13464,
            "byteOffset" : 423712
        },
        {
            "buffer" : 0,
            "byteLength" : 21024,
            "byteOffset" : 437176
        },
        {
            "buffer" : 0,
            "byteLength" : 21024,
            "byteOffset" : 458200
        },
        {
            "buffer" : 0,
            "byteLength" : 14016,
            "byteOffset" : 479224
        },
        {
            "buffer" : 0,
            "byteLength" : 13824,
            "byteOffset" : 493240
        },
        {
            "buffer" : 0,
            "byteLength" : 132396,
            "byteOffset" : 507064
        },
        {
            "buffer" : 0,
            "byteLength" : 132396,
            "byteOffset" : 639460
        },
        {
            "buffer" : 0,
            "byteLength" : 88264,
            "byteOffset" : 771856
        },
        {
            "buffer" : 0,
            "byteLength" : 110088,
            "byteOffset" : 860120
        }
    ],
    "buffers" : [
        {
            "byteLength" : 970208,
            "uri" : "alien-moon.bin"
        }
    ]
}
